{"title":"Black Sails S01E07 WEBRip x264 AAC [GWC].mp4","uid":9727310,"size":204955745,"categoryP":"video","categoryS":"tv_shows","magnet":"?xt=urn:btih:bc87c4f89b90acd5d769b182ac1e54db2c7f4eca&amp;dn=Black+Sails+S01E07+WEBRip+x264+AAC+%5BGWC%5D.mp4&amp;tr=udp%3A%2F%2Ftracker.openbittorrent.com%3A80&amp;tr=udp%3A%2F%2Fopen.demonii.com%3A1337&amp;tr=udp%3A%2F%2Ftracker.coppersurfer.tk%3A6969&amp;tr=udp%3A%2F%2Fexodus.desync.com%3A6969","seeders":1,"leechers":2,"uploader":"canc232","files":1,"time":1394312052,"description":"Black Sails S01E07 WEBRip x264 AAC [GWC]\n\nSTORYLINE :\nCaptain Flint and his pirates, twenty years prior to Robert Louis Stevenson's classic &quot;Treasure Island&quot;. \n\n\nSCREENS : &lt;a href=&quot;\nhttp://i.imgur.com/obWd3sU.jpg&quot; rel=&quot;nofollow&quot; target=&quot;_NEW&quot;&gt;\nhttp://i.imgur.com/obWd3sU.jpg&lt;/a&gt; &lt;a href=&quot;\nhttp://i.imgur.com/S2Gopab.jpg&quot; rel=&quot;nofollow&quot; target=&quot;_NEW&quot;&gt;\nhttp://i.imgur.com/S2Gopab.jpg&lt;/a&gt; &lt;a href=&quot;\nhttp://i.imgur.com/XPG1jZt.jpg&quot; rel=&quot;nofollow&quot; target=&quot;_NEW&quot;&gt;\nhttp://i.imgur.com/XPG1jZt.jpg&lt;/a&gt;\n\n\nMEDIA INFO :\nGeneral \nFormat : MPEG-4 \nFormat profile : Base Media \nFile size : 195 MiB \nDuration : 53mn 47s \nOverall bit rate mode : Variable \nOverall bit rate : 508 Kbps \n\nVideo \nFormat : AVC \nFormat profile : &lt;a class=&quot;__cf_email__&quot; href=&quot;/cdn-cgi/l/email-protection&quot; data-cfemail=&quot;c48cada3ac8488f7eaf4&quot;&gt;[email&amp;#160;protected]&lt;/a&gt;&lt;script cf-hash='f9e31' type=&quot;text/javascript&quot;&gt;\n/* &lt;![CDATA[ */!function(){try{var t=&quot;currentScript&quot;in document?document.currentScript:function(){for(var t=document.getElementsByTagName(&quot;script&quot;),e=t.length;e--;)if(t[e].getAttribute(&quot;cf-hash&quot;))return t[e]}();if(t&amp;&amp;t.previousSibling){var e,r,n,i,c=t.previousSibling,a=c.getAttribute(&quot;data-cfemail&quot;);if(a){for(e=&quot;&quot;,r=parseInt(a.substr(0,2),16),n=2;a.length-n;n+=2)i=parseInt(a.substr(n,2),16)^r,e+=String.fromCharCode(i);e=document.createTextNode(e),c.parentNode.replaceChild(e,c)}}}catch(u){}}();/* ]]&gt; */&lt;/script&gt; \nFormat settings, CABAC : Yes \nFormat settings, ReFrames : 4 frames \nDuration : 53mn 47s \nBit rate : 445 Kbps \nMaximum bit rate : 3 689 Kbps \nWidth : 720 pixels \nHeight : 408 pixels \nDisplay aspect ratio : 16:9 \nFrame rate mode : Constant \nFrame rate : 25.000 fps \nStream size : 171 MiB (88%) \nTitle : Black Sails S01E07 WEBRip x264 AAC [GWC] \nWriting library : x264 core \n\nAudio \nFormat : AAC \nFormat profile : HE-AAC / LC \nDuration : 53mn 47s \nBit rate mode : Variable \nChannel(s) : 2 channels \nSampling rate : 48.0 KHz / 24.0 KHz \nStream size : 23.1 MiB (12%) \nLanguage : English ","torrent":{"xt":"urn:btih:bc87c4f89b90acd5d769b182ac1e54db2c7f4eca","amp;dn":"Black+Sails+S01E07+WEBRip+x264+AAC+%5BGWC%5D.mp4","amp;tr":["udp%3A%2F%2Ftracker.openbittorrent.com%3A80","udp%3A%2F%2Fopen.demonii.com%3A1337","udp%3A%2F%2Ftracker.coppersurfer.tk%3A6969","udp%3A%2F%2Fexodus.desync.com%3A6969"],"infoHash":"bc87c4f89b90acd5d769b182ac1e54db2c7f4eca","infoHashBuffer":{"type":"Buffer","data":[188,135,196,248,155,144,172,213,215,105,177,130,172,30,84,219,44,127,78,202]},"announce":[],"urlList":[]}}